<svg viewBox="0 0 16 16" fill="none" xmlns="http://www.w3.org/2000/svg">
<path d="M9.23051 1.09857C9.13032 1.09857 9.0373 1.12003 8.95143 1.14866C9.1339 1.27031 9.23407 1.43133 9.28417 1.6138C9.28775 1.63884 9.2949 1.65674 9.29848 1.68178C9.30206 1.70324 9.30563 1.72472 9.30563 1.74618C9.31995 2.06104 9.22334 2.10039 9.15536 2.28644C9.0516 2.52618 9.08022 2.78379 9.20545 2.99131C9.21618 3.01635 9.2305 3.04498 9.24839 3.07002C9.11242 2.16481 9.86738 2.02885 10.0069 1.74618C10.0176 1.49929 9.8137 1.33473 9.6527 1.22023C9.49885 1.12721 9.35931 1.09857 9.23051 1.09857ZM10.3683 1.30252C10.354 1.38482 10.3647 1.36335 10.3611 1.40629C10.3576 1.43491 10.3576 1.47069 10.354 1.49931C10.3468 1.52794 10.3397 1.55656 10.3289 1.58519C10.3218 1.61381 10.3111 1.64243 10.3003 1.67105C10.286 1.69968 10.2753 1.72473 10.261 1.75335C10.2502 1.76768 10.2431 1.78197 10.2323 1.79628C10.2252 1.80701 10.218 1.81774 10.2109 1.82848C10.193 1.85353 10.1751 1.87858 10.1572 1.90004C10.1357 1.9215 10.1178 1.94656 10.0928 1.96445V1.96802C10.0713 1.9859 10.0499 2.00737 10.0248 2.02527C9.94969 2.08251 9.86382 2.12545 9.78509 2.17911C9.76004 2.19699 9.735 2.21132 9.71353 2.23278C9.68849 2.25066 9.66702 2.26856 9.64555 2.29003C9.6205 2.31149 9.60261 2.33297 9.58115 2.35801C9.56326 2.37947 9.54179 2.40453 9.52748 2.42957C9.50959 2.45462 9.4917 2.47966 9.47739 2.50471C9.46307 2.53333 9.45234 2.55838 9.43803 2.587C9.42729 2.61562 9.41656 2.64067 9.4094 2.66929C9.39867 2.7015 9.39152 2.73012 9.38436 2.75875C9.38078 2.77306 9.38078 2.79094 9.37721 2.80526C9.37363 2.81957 9.37363 2.83388 9.37006 2.84819C9.37006 2.87682 9.36648 2.90902 9.36648 2.93764C9.36648 2.9591 9.36648 2.98058 9.37006 3.00204C9.37006 3.03067 9.37364 3.05929 9.38079 3.09149C9.38438 3.12012 9.39153 3.14874 9.39868 3.17736C9.40942 3.20598 9.41657 3.23461 9.42731 3.26323C9.43446 3.28113 9.44519 3.29901 9.45235 3.31332L8.62942 2.9949C8.48988 2.95554 8.35391 2.91976 8.21438 2.88756C8.13925 2.86968 8.06411 2.85178 7.98898 2.83389C7.7743 2.79095 7.55606 2.75875 7.33779 2.73728C7.33065 2.73728 7.32706 2.73369 7.31991 2.73369C7.10523 2.71224 6.89414 2.7015 6.67946 2.7015C6.52203 2.7015 6.3646 2.70865 6.21074 2.71938C5.99248 2.73371 5.77423 2.76231 5.55599 2.79809C5.50232 2.80525 5.44865 2.81597 5.39498 2.82672C5.28406 2.84817 5.17673 2.87323 5.07296 2.89828C5.01929 2.91259 4.96562 2.9269 4.91195 2.94121C4.85828 2.96267 4.80819 2.98772 4.7581 3.00919C4.71874 3.02707 4.67938 3.04497 4.64003 3.06286C4.63288 3.06645 4.62571 3.06645 4.62214 3.07002C4.58636 3.0879 4.55416 3.10222 4.52196 3.12011C4.51122 3.12367 4.50407 3.12726 4.49691 3.13083C4.45755 3.14871 4.41819 3.17018 4.38599 3.18807C4.36095 3.1988 4.3359 3.21312 4.31443 3.22386C4.3037 3.23101 4.28939 3.23817 4.28223 3.24174C4.25003 3.25962 4.21783 3.27751 4.18921 3.29541C4.157 3.31329 4.12838 3.33119 4.10334 3.34908C4.07829 3.36696 4.05324 3.38128 4.03178 3.39917C4.02819 3.40275 4.02462 3.40275 4.02104 3.40632C3.99957 3.42065 3.97453 3.43853 3.95306 3.45641C3.95306 3.45641 3.94948 3.45998 3.94591 3.46357C3.92802 3.4779 3.91013 3.49219 3.89224 3.5065C3.88509 3.51009 3.87793 3.51723 3.87077 3.52082C3.85289 3.53515 3.835 3.55302 3.81711 3.56733C3.81353 3.57449 3.80637 3.57805 3.80279 3.58166C3.78132 3.60312 3.75985 3.62102 3.73839 3.64249C3.7348 3.64249 3.7348 3.64605 3.73123 3.64964C3.70977 3.66752 3.6883 3.689 3.66683 3.71047C3.66325 3.71406 3.66325 3.71763 3.65968 3.71763C3.64179 3.73551 3.6239 3.75341 3.60601 3.77487C3.59886 3.78203 3.58812 3.7892 3.58097 3.79633C3.56308 3.81779 3.54161 3.83927 3.52014 3.86073C3.51656 3.86789 3.50941 3.87146 3.50583 3.87861C3.4772 3.90724 3.45216 3.93586 3.42353 3.96448C3.41995 3.96805 3.41638 3.97164 3.4128 3.97521C3.35555 4.03603 3.29473 4.09686 3.23032 4.15053C3.16592 4.20777 3.09794 4.26144 3.02996 4.30796C2.9584 4.35805 2.89042 4.40098 2.81528 4.44392C2.74372 4.48328 2.66859 4.51905 2.58988 4.55125C2.51474 4.58346 2.43603 4.61208 2.35732 4.63713C2.20705 4.66933 2.05319 4.73015 1.92081 4.74089C1.89219 4.74089 1.85999 4.74804 1.83137 4.75161C1.79916 4.75876 1.77054 4.76594 1.74192 4.77307C1.7133 4.78379 1.68467 4.79452 1.65605 4.80527C1.62742 4.81599 1.5988 4.83031 1.57018 4.84463C1.54513 4.86251 1.51651 4.87683 1.49146 4.89472C1.46642 4.9126 1.44137 4.93407 1.4199 4.95554C1.39486 4.97342 1.36981 4.99847 1.34834 5.01994C1.32688 5.04499 1.30541 5.06646 1.28752 5.0915C1.26963 5.12013 1.24816 5.14517 1.23385 5.1738C1.21596 5.19884 1.19807 5.22747 1.18376 5.25609C1.16944 5.28829 1.15513 5.31691 1.1444 5.34912C1.13367 5.37774 1.12293 5.40994 1.1122 5.44214C1.10505 5.47076 1.09788 5.49939 1.09431 5.52801C1.09431 5.53158 1.09073 5.53517 1.09073 5.53874C1.08358 5.57094 1.08358 5.61388 1.08 5.63535C1.07641 5.66039 1.07285 5.68186 1.07285 5.70691C1.07285 5.72122 1.07285 5.7391 1.07643 5.75342C1.08001 5.77846 1.08358 5.79993 1.09075 5.8214C1.0979 5.84286 1.10506 5.86433 1.11579 5.8858V5.88939C1.12652 5.91084 1.14084 5.93232 1.15515 5.95379C1.16946 5.97525 1.18377 5.99673 1.20166 6.0182C1.21955 6.03608 1.24102 6.05755 1.26249 6.07544C1.28395 6.0969 1.30542 6.1148 1.33047 6.13269C1.41634 6.20782 1.43781 6.23287 1.54873 6.29012C1.56662 6.30084 1.58451 6.308 1.60598 6.31874C1.60956 6.31874 1.61313 6.32231 1.61671 6.32231C1.61671 6.32946 1.61671 6.33303 1.62029 6.34019C1.62388 6.36881 1.63103 6.39743 1.63818 6.42606C1.64533 6.45826 1.65607 6.48689 1.66681 6.51193C1.67754 6.53339 1.6847 6.55486 1.69543 6.57633C1.69901 6.58349 1.70258 6.59065 1.70617 6.59421C1.72048 6.62284 1.73479 6.64789 1.7491 6.67293C1.76699 6.69797 1.78488 6.72302 1.80277 6.74807C1.82066 6.76953 1.84213 6.79458 1.86359 6.81605C1.88506 6.8375 1.90653 6.8554 1.93158 6.87687C1.93158 6.87687 1.93516 6.88044 1.93873 6.88044C1.96019 6.89834 1.98166 6.91622 2.00313 6.93053C2.02817 6.94841 2.05322 6.96273 2.08184 6.97704C2.10689 6.99138 2.13551 7.00567 2.16414 7.0164C2.18561 7.02712 2.21065 7.03428 2.2357 7.04145C2.23928 7.04503 2.24285 7.04503 2.25001 7.0486C2.26433 7.05217 2.28221 7.05576 2.29653 7.05932C2.28579 7.25253 2.28221 7.43502 2.31084 7.49942C2.34304 7.57098 2.50047 7.35272 2.65789 7.10226C2.63643 7.34915 2.62211 7.63895 2.65789 7.72482C2.69725 7.81427 2.91192 7.53519 3.09797 7.2275C5.63479 6.64072 7.94968 8.39391 8.19298 10.8698C8.14646 10.4833 7.6706 10.2687 7.45235 10.3223C7.34501 10.5871 7.16253 10.927 6.86913 11.1381C6.89418 10.902 6.88345 10.6587 6.83336 10.4225C6.75464 10.7517 6.60078 11.0594 6.38969 11.3242C6.04979 11.3492 5.70988 11.1846 5.53098 10.9377C5.51666 10.927 5.51309 10.9055 5.50236 10.8912C5.49162 10.8662 5.48089 10.8411 5.47373 10.8161C5.463 10.791 5.45585 10.766 5.45227 10.741C5.44868 10.7159 5.44868 10.6909 5.44868 10.6622V10.6086C5.45227 10.5835 5.45942 10.5585 5.46657 10.5334C5.47372 10.5084 5.48089 10.4833 5.49162 10.4583C5.50594 10.4333 5.51666 10.4082 5.53455 10.3832C5.59538 10.2114 5.59538 10.0719 5.48446 9.98959C5.46299 9.97526 5.44153 9.96455 5.41648 9.95381C5.40216 9.95022 5.38428 9.94308 5.36996 9.9395C5.35923 9.93593 5.35208 9.93234 5.34134 9.92877C5.3163 9.92161 5.29125 9.91444 5.2662 9.91089C5.24116 9.90373 5.21611 9.90017 5.19107 9.90017C5.16602 9.89658 5.1374 9.89301 5.11235 9.89301C5.09446 9.89301 5.07657 9.89658 5.05868 9.89658C5.03006 9.89658 5.00501 9.90017 4.97997 9.9073C4.95492 9.91087 4.92988 9.91446 4.90483 9.92162C4.87979 9.92877 4.85474 9.93595 4.82969 9.94667C4.80465 9.95739 4.78318 9.96812 4.75814 9.97887C4.73667 9.98959 4.7152 10.0039 4.69015 10.0146C3.85648 10.5585 4.35383 11.8322 4.92271 12.2007C4.70803 12.2401 4.48979 12.2866 4.42895 12.3331C4.42537 12.3367 4.4218 12.3403 4.4218 12.3403C4.57566 12.4333 4.73666 12.512 4.90482 12.58C5.13381 12.6551 5.37711 12.7231 5.48445 12.7517V12.7553C5.78141 12.8161 6.08197 12.8376 6.38609 12.8197C7.97111 12.7088 9.26982 11.503 9.50606 9.91439C9.51321 9.9466 9.52038 9.97522 9.52753 10.0074C9.53827 10.0718 9.55258 10.1398 9.55973 10.2078V10.2114C9.56688 10.2436 9.57047 10.2758 9.57405 10.3044V10.3187C9.57763 10.3509 9.5812 10.3831 9.5812 10.4117C9.58478 10.4511 9.58835 10.4904 9.58835 10.5298V10.5871C9.58835 10.6049 9.59193 10.6264 9.59193 10.6443C9.59193 10.6658 9.58835 10.6872 9.58835 10.7087V10.7588C9.58835 10.7838 9.58477 10.8053 9.58477 10.8304C9.58477 10.8447 9.58477 10.859 9.58118 10.8769C9.58118 10.9019 9.5776 10.927 9.5776 10.9556C9.57402 10.9663 9.57402 10.977 9.57402 10.9878C9.57044 11.0164 9.56687 11.0415 9.56329 11.0701C9.56329 11.0808 9.56329 11.0915 9.5597 11.1023C9.55612 11.1381 9.54897 11.1703 9.54539 11.206V11.2096V11.2132C9.53824 11.2454 9.53107 11.2812 9.52392 11.3134V11.3241C9.51677 11.3563 9.5096 11.3885 9.50245 11.4207C9.50245 11.4243 9.49887 11.4314 9.49887 11.435C9.49172 11.4672 9.48455 11.4994 9.47382 11.5316V11.5423C9.46309 11.5781 9.45235 11.6103 9.4452 11.6425C9.44162 11.6461 9.44162 11.6497 9.44162 11.6497C9.43088 11.6854 9.42015 11.7212 9.40942 11.757C9.3951 11.7928 9.38437 11.825 9.37006 11.8608C9.35574 11.8965 9.34501 11.9323 9.3307 11.9645C9.31638 12.0003 9.30208 12.0325 9.28777 12.0683H9.28418C9.26987 12.1005 9.25556 12.1363 9.23767 12.1685C9.23409 12.1792 9.23052 12.1864 9.22693 12.1935C9.22335 12.1971 9.22335 12.2007 9.21978 12.2042C8.98723 12.6729 8.64372 13.0844 8.21439 13.4064C8.18577 13.4243 8.15714 13.4458 8.12852 13.4673C8.12137 13.4744 8.11063 13.478 8.10347 13.4851C8.07843 13.503 8.05338 13.5209 8.02476 13.5388L8.03549 13.5603H8.03908C8.08917 13.5531 8.13926 13.5459 8.18935 13.5388H8.19293C8.28596 13.5245 8.37899 13.5066 8.47201 13.4887C8.49706 13.4851 8.52568 13.478 8.55073 13.4708C8.56862 13.4672 8.58293 13.4637 8.60082 13.4601C8.62587 13.4565 8.65091 13.4494 8.67596 13.4458C8.69742 13.4386 8.71889 13.4351 8.74036 13.4279C9.09815 13.342 9.44521 13.224 9.77797 13.0844C9.20908 13.8608 8.44697 14.487 7.55601 14.8984C7.96748 14.8698 8.37894 14.8018 8.77608 14.6874C10.218 14.2616 11.4308 13.292 12.1573 11.9861C12.0106 12.8126 11.6814 13.5997 11.1948 14.2866C11.5419 14.0576 11.8603 13.7929 12.1501 13.4923C12.9516 12.6551 13.4775 11.5924 13.6564 10.4512C13.7781 11.0165 13.8139 11.5997 13.7602 12.1757C16.3436 8.57278 13.9749 4.8374 12.9838 3.85352C12.9802 3.84636 12.9767 3.84279 12.9767 3.83564C12.9731 3.83921 12.9731 3.8392 12.9731 3.84279C12.9731 3.83922 12.9731 3.83923 12.9695 3.83564C12.9695 3.87857 12.9659 3.9215 12.9623 3.96444C12.9516 4.04674 12.9409 4.12545 12.9266 4.20415C12.9087 4.28287 12.8872 4.36158 12.8657 4.4403C12.8407 4.51544 12.8121 4.59415 12.7799 4.66929C12.7477 4.74085 12.7119 4.81599 12.6725 4.88755C12.6332 4.95554 12.5902 5.0271 12.5437 5.09151C12.4972 5.15949 12.4471 5.22389 12.397 5.28472C12.3434 5.34912 12.2861 5.40637 12.2289 5.46362C12.1931 5.49582 12.1609 5.52444 12.1251 5.55307C12.0965 5.57811 12.0714 5.59958 12.0428 5.62462C11.9784 5.67471 11.914 5.72123 11.8424 5.76416C11.7745 5.80709 11.7029 5.85003 11.6313 5.88581C11.5562 5.92159 11.4811 5.95379 11.4059 5.98599C11.3308 6.01461 11.2521 6.03966 11.1734 6.06113C11.0947 6.08259 11.0124 6.10049 10.9337 6.1148C10.8514 6.12913 10.7691 6.13625 10.6904 6.14342C10.6331 6.14701 10.5759 6.15058 10.5186 6.15058C10.4363 6.15058 10.354 6.14342 10.2753 6.13625C10.193 6.12909 10.1107 6.11837 10.032 6.10047C9.94972 6.08613 9.87101 6.06469 9.79228 6.03964H9.7887C9.86741 6.03249 9.94613 6.02531 10.0248 6.01102C10.1071 5.9967 10.1859 5.97882 10.2646 5.95735C10.3433 5.93589 10.422 5.91084 10.4971 5.88221C10.5758 5.85359 10.651 5.81781 10.7225 5.78203C10.7977 5.74625 10.8656 5.70689 10.9372 5.66396C11.0052 5.61744 11.0732 5.57093 11.1376 5.52084C11.202 5.47075 11.2628 5.41708 11.32 5.35984C11.3809 5.30616 11.4345 5.24534 11.4882 5.18452C11.5419 5.12011 11.592 5.0557 11.6385 4.99131C11.6456 4.98058 11.6528 4.96626 11.6599 4.95553C11.6957 4.89828 11.7315 4.84103 11.7637 4.78378C11.8031 4.71223 11.8388 4.64067 11.871 4.56552C11.9032 4.49038 11.9319 4.41524 11.9569 4.33653C11.982 4.26139 11.9998 4.18268 12.0177 4.10397C12.0321 4.02168 12.0464 3.94296 12.0535 3.86424C12.0607 3.78195 12.0678 3.69965 12.0678 3.62094C12.0678 3.56369 12.0643 3.50645 12.0607 3.4492C12.0535 3.36691 12.0428 3.28818 12.0321 3.20948C12.0177 3.12719 11.9999 3.04847 11.9784 2.96975C11.9533 2.89462 11.9283 2.8159 11.8997 2.74076C11.871 2.66562 11.8353 2.59049 11.7995 2.51893C11.7601 2.44737 11.7208 2.37581 11.6778 2.30784C11.6313 2.23986 11.5848 2.17545 11.5347 2.11105C11.4811 2.05023 11.4274 1.9894 11.3701 1.92858C11.3415 1.89996 11.3093 1.86775 11.2771 1.83913C11.1161 1.7139 10.9479 1.59583 10.7798 1.48849C10.7547 1.47418 10.7333 1.46345 10.7082 1.45271C10.5902 1.37757 10.4792 1.3383 10.3683 1.30252Z" fill="#EA2845"/>
</svg>