<svg viewBox="0 0 16 16" fill="none" xmlns="http://www.w3.org/2000/svg">
<g clip-path="url(#clip0_1_3212)">
<path d="M6.37305 1.42223C2.50751 0.20584 0.296757 1.31288 0.453781 4.57032C0.470611 4.88343 0.582876 5.53287 0.777014 6.33904C0.971147 7.14513 1.24423 8.09159 1.58005 8.9415C1.91586 9.79132 2.30356 10.5407 2.78713 10.978C3.02891 11.1966 3.31566 11.3442 3.63057 11.3317C3.94548 11.3193 4.24504 11.1479 4.51442 10.8466C5.15707 10.1273 5.684 9.60854 5.78715 9.50751C6.06488 9.64653 6.33598 9.73403 6.72045 9.7379C6.38784 10.1397 6.33488 10.2708 5.78422 10.3461C5.17762 10.429 4.60199 10.6369 4.90978 11.1399C5.13084 11.5012 6.78148 11.8747 7.73666 11.0285C7.75418 13.5508 7.66707 15.6133 10.1104 15.2429C12.0969 14.9419 11.979 13.6246 12.3427 10.8567C14.1791 11.2081 16.0357 10.0537 15.4084 9.50747C15.0875 9.20451 13.9934 9.82815 13.1661 9.43669C14.4746 7.7852 16.0768 3.62488 15.1559 2.29646C13.8457 0.778725 11.7201 0.394925 9.52428 1.04829C8.12438 0.751377 7.13167 0.945625 6.37305 1.42223ZM10.302 1.29576C12.763 0.812437 15.1266 1.9182 14.9939 3.49404C14.8173 5.59034 13.987 7.37206 12.8979 9.03239C12.8714 9.00201 12.8446 8.97309 12.8171 8.94144C13.4725 7.81469 13.0775 7.07274 13.0595 6.11668C13.0508 5.65149 13.2754 4.65103 13.1997 4.44842C12.7983 3.37544 12.281 2.19496 10.302 1.29576ZM8.35763 1.34136C10.7116 1.415 12.024 2.78921 12.691 4.34295C11.0079 4.19664 10.5128 4.97052 10.8274 6.14191C11.0507 6.8702 11.3952 7.55237 11.7971 8.16826C12.0284 8.50672 11.9648 8.63409 12.6001 9.38609C12.0322 9.53615 11.9116 9.92271 11.9182 10.4118C11.8889 10.7749 11.6389 12.7357 11.5141 13.4084C11.3261 14.4845 10.7368 14.6839 10.0141 14.8233C8.13465 15.0947 8.20717 13.8492 8.21092 10.225C8.17192 9.71054 7.69505 9.32154 7.20099 9.41652C7.45942 8.32588 8.39166 7.56731 7.81715 5.31843C7.50604 4.17751 6.2804 4.21671 5.1303 4.78278C5.34209 2.65856 6.34025 1.32587 8.35763 1.34136ZM4.60003 7.24359C4.47833 8.05321 4.81958 8.80418 5.39801 9.26489C5.09499 9.59411 4.59526 10.0408 4.37664 10.3299C3.51336 11.4717 2.95696 10.8776 2.0143 8.78981C1.0239 5.67163 0.278458 3.56599 1.6254 2.06908C2.67546 1.12153 4.23903 1.26529 5.95859 1.74057C5.52737 2.13319 5.23822 2.61714 5.04446 3.09484C4.36896 4.92639 4.81965 5.82828 4.60003 7.24359ZM12.5243 8.54728C12.05 7.72987 11.4113 6.61682 11.2768 6.04088C11.041 5.11325 11.3018 4.62198 12.7516 4.78263C12.743 5.20618 12.6189 5.55426 12.6001 6.10151C12.5969 6.90102 12.9186 7.9069 12.5243 8.54728ZM6.74657 9.30522C5.74378 9.30372 4.89025 8.39801 5.05461 7.30414C5.15474 6.67052 5.15047 6.00207 5.10007 5.31822C5.83826 4.82129 7.20151 4.48213 7.36777 5.40926C7.90156 7.67461 7.13519 7.91791 6.74657 9.30522ZM12.3223 5.07575C12.2943 4.86057 11.5166 4.96163 11.5445 5.17682C11.6106 5.40498 12.0822 5.55735 12.3137 5.13372C12.3218 5.11891 12.3238 5.09132 12.3223 5.07575ZM7.09999 5.42451C7.40416 5.09224 6.35224 4.91714 6.29698 5.21733C6.26382 5.39085 6.72069 5.80926 7.09999 5.42451ZM14.9282 9.88139C14.1025 10.5869 12.7687 10.5795 12.3828 10.4018C12.3868 10.0831 12.3745 9.84716 12.8677 9.76516C13.2427 10.0305 13.9035 10.0819 14.9282 9.88139ZM5.33738 10.9122C5.50666 10.8044 6.07775 10.7528 6.43146 10.598C6.71513 10.4738 6.88465 10.2146 7.15361 9.93072C7.40784 9.61737 7.8962 10.0664 7.70101 10.417C7.01729 11.3316 5.79405 11.1583 5.33738 10.9122ZM0.338879 6.44511C-1.04818 1.28641 1.99595 -0.320421 6.31481 0.975749C7.17505 0.502409 8.25456 0.375148 9.56101 0.60607C11.8695 -0.0285657 14.2502 0.414392 15.6089 2.17077C16.3533 3.39768 15.6193 6.47563 13.9263 9.14941C15.0829 9.09743 15.1308 8.79816 15.6988 9.1798C16.8102 10.2202 14.6291 11.5336 12.6856 11.3574C12.6722 11.4219 12.6611 11.4943 12.6502 11.5752C12.6068 13.0773 12.3837 14.003 11.8956 14.6492C11.4022 15.3024 10.6613 15.5103 10.0775 15.6266C7.70275 15.974 7.37442 14.1134 7.36303 11.7677C6.33127 12.2115 4.95746 11.9058 4.56757 11.4233C3.74169 12.0249 3.00291 11.7574 2.47602 11.3017C1.50529 10.3785 0.937979 8.72197 0.338879 6.44511Z" fill="#262626"/>
</g>
<defs>
<clipPath id="clip0_1_3212">
<rect width="16" height="16" fill="white"/>
</clipPath>
</defs>
</svg>
